<?xml version="1.0" encoding="UTF-8"?>
<!DOCTYPE svg PUBLIC "-//W3C//DTD SVG 1.1//EN" "http://www.w3.org/Graphics/SVG/1.1/DTD/svg11.dtd">
<!-- Creator: CorelDRAW 2021 (64-Bit) -->
<svg xmlns="http://www.w3.org/2000/svg" xml:space="preserve" width="210mm" height="297mm" version="1.1" style="shape-rendering:geometricPrecision; text-rendering:geometricPrecision; image-rendering:optimizeQuality; fill-rule:evenodd; clip-rule:evenodd"
viewBox="0 0 21000 29700"
 xmlns:xlink="http://www.w3.org/1999/xlink"
 xmlns:xodm="http://www.corel.com/coreldraw/odm/2003">
 <defs>
  <style type="text/css">
   <![CDATA[
    .fil0 {fill:#AE4A84;fill-rule:nonzero}
   ]]>
  </style>
 </defs>
 <g id="Plan_x0020_1">
  <metadata id="CorelCorpID_0Corel-Layer"/>
  <g id="_2072079210656">
   <path class="fil0" d="M3628.8 14217.9c-113.4,14.7 -233.1,21 -361.2,21l-340.2 0c-113.4,0 -220.5,-6.3 -319.2,-21 -142.8,-14.7 -277.2,-50.4 -403.2,-107.1 -126,-56.7 -252,-117.6 -371.7,-180.6 -119.7,-63 -237.3,-123.9 -350.7,-180.6 -113.4,-56.7 -220.5,-92.4 -319.2,-107.1 -212.1,-29.4 -413.7,-42 -606.9,-42 -191.1,0 -300.3,92.4 -329.7,277.2 -42,226.8 4.2,382.2 138.6,468.3 134.4,86.1 252,149.1 350.7,191.1 155.4,71.4 354.9,226.8 596.4,468.3 241.5,241.5 510.3,411.6 808.5,510.3 142.8,56.7 304.5,96.6 489.3,117.6 184.8,21 361.2,31.5 531.3,31.5 199.5,0 396.9,-6.3 596.4,-21 42,483 134.4,957.6 277.2,1425.9 113.4,396.9 277.2,814.8 489.3,1253.7 212.1,438.9 489.3,823.2 829.5,1148.7 354.9,325.5 819,567 1392.3,722.4 573.3,155.4 1138.2,262.5 1690.5,319.2 653.1,56.7 1333.5,77.7 2041.2,63 737.1,29.4 1446.9,6.3 2127.3,-63 581.7,-56.7 1159.2,-165.9 1732.5,-329.7 573.3,-163.8 1024.8,-422.1 1350.3,-777 369.6,-411.6 659.4,-844.2 871.5,-1297.8 212.1,-453.6 369.6,-865.2 468.3,-1232.7 113.4,-438.9 176.4,-856.8 191.1,-1253.7l1318.8 0c98.7,0 210,-29.4 329.7,-86.1 119.7,-56.7 237.3,-123.9 350.7,-201.6 113.4,-77.7 222.6,-159.6 329.7,-243.6 107.1,-86.1 186.9,-155.4 243.6,-212.1 128.1,-98.7 256.2,-191.1 382.2,-277.2 128.1,-86.1 268.8,-163.8 426.3,-233.1 142.8,-56.7 212.1,-174.3 212.1,-350.7 0,-176.4 -77.7,-287.7 -233.1,-329.7 -241.5,-71.4 -499.8,-73.5 -777,-10.5 -277.2,63 -535.5,174.3 -777,329.7 -113.4,71.4 -252,123.9 -413.7,159.6 -163.8,35.7 -325.5,60.9 -489.3,73.5 -163.8,14.7 -319.2,16.8 -468.3,10.5 -149.1,-6.3 -266.7,-10.5 -350.7,-10.5l-680.4 0c-426.3,0 -959.7,-4.2 -1606.5,-10.5 -644.7,-6.3 -1371.3,-10.5 -2179.8,-10.5l-2488.5 0 -6699 0 0 -2.1zm7675.5 -4508.7c71.4,184.8 117.6,375.9 138.6,573.3 21,199.5 25.2,375.9 10.5,531.3 -14.7,199.5 -35.7,390.6 -63,573.3 256.2,0 525,6.3 808.5,21 241.5,14.7 525,31.5 850.5,52.5 325.5,21 674.1,60.9 1041.6,117.6 722.4,98.7 1283.1,241.5 1680,426.3 396.9,184.8 695.1,375.9 892.5,573.3 184.8,184.8 289.8,340.2 319.2,468.3 14.7,56.7 14.7,113.4 0,170.1l-13503 0c-29.4,-184.8 71.4,-396.9 298.2,-638.4 226.8,-241.5 659.4,-483 1297.8,-722.4 325.5,-113.4 716.1,-205.8 1169.7,-277.2 453.6,-71.4 886.2,-119.7 1297.8,-149.1 483,-42 984.9,-63 1509.9,-63 -29.4,-199.5 -42,-396.9 -42,-596.4 0,-170.1 10.5,-350.7 31.5,-541.8 21,-191.1 73.5,-365.4 159.6,-520.8 71.4,-155.4 165.9,-277.2 287.7,-361.2 119.7,-86.1 237.3,-142.8 350.7,-170.1 128.1,-42 256.2,-63 382.2,-63 241.5,-14.7 459.9,25.2 659.4,117.6 195.3,92.4 338.1,252 422.1,478.8l0 0zm-1083.6 86.1c-142.8,0 -262.5,50.4 -361.2,149.1 -98.7,98.7 -149.1,226.8 -149.1,382.2 0,142.8 50.4,262.5 149.1,361.2 98.7,98.7 220.5,149.1 361.2,149.1 155.4,0 283.5,-50.4 382.2,-149.1 98.7,-98.7 149.1,-220.5 149.1,-361.2 0,-155.4 -50.4,-283.5 -149.1,-382.2 -98.7,-100.8 -226.8,-149.1 -382.2,-149.1z"/>
  </g>
 </g>
</svg>
